<svg width="127" height="146" viewBox="0 0 127 146" fill="none" xmlns="http://www.w3.org/2000/svg">
<g clip-path="url(#clip0)">
<path d="M74.8096 52.4369L74.8528 52.4668V24.9597H54.4475V39.6969C58.8525 37.858 63.8752 38.2699 67.9226 40.8017C71.9689 43.3324 74.5362 47.6688 74.8096 52.4347V52.4369Z" fill="black"/>
<path d="M49.9131 53.3004C49.9131 53.5273 49.9519 53.7266 49.9651 53.9425L55.4573 50.2803C56.2189 49.7722 57.2119 49.7722 57.9736 50.2803L63.5166 53.9812L69.0608 50.2848C69.2634 50.153 69.4859 50.0545 69.7206 49.9925C68.1131 45.2764 63.3273 42.418 58.4131 43.2394C53.4989 44.0598 49.9009 48.3186 49.9131 53.3004Z" fill="black"/>
<path d="M76.1813 20.4252L82.983 13.6234H64.4553L57.6536 20.4252H76.1813Z" fill="black"/>
<path d="M79.3875 52.4668L81.1333 51.301L93.1659 19.2717L88.4565 14.5622L79.3875 23.6313V52.4668Z" fill="black"/>
<path d="M38.4982 19.3846C39.2975 20.2204 39.3406 21.5245 38.5967 22.4102C37.8539 23.2969 36.5619 23.4807 35.5999 22.8375C34.6445 22.1998 33.3714 22.3194 32.5511 23.1231L32.4935 23.1851L32.4536 23.2238C32.1271 23.5759 31.909 24.0154 31.8248 24.4881C31.6654 25.3217 31.9189 26.1808 32.5057 26.7941C32.5599 26.8506 32.9131 27.248 33.3559 27.7761L33.936 28.4558C34.7541 28.4956 35.5667 28.6185 36.3593 28.8233C39.7657 29.7134 42.6242 32.0261 44.2039 35.1712L48.4849 44.2878C48.9233 43.7243 49.4016 43.194 49.9175 42.7014V22.6925C49.9175 22.6426 49.9429 22.6017 49.9451 22.5519C49.9584 22.3482 49.9994 22.1467 50.068 21.954C50.0924 21.881 50.1101 21.8112 50.1422 21.7404C50.2496 21.5013 50.3979 21.2821 50.5795 21.0939L51.6323 20.0422L51.5637 19.9746L58.2437 13.1729C59.2278 12.1643 59.2278 10.5536 58.2437 9.54504C57.2872 8.60294 55.7528 8.60294 54.7974 9.54504L51.4552 12.9437C50.8098 13.5991 49.8322 13.8006 48.9809 13.453C48.1296 13.1042 47.5727 12.2762 47.5716 11.3562V2.28718C47.6081 1.48235 47.1996 0.722906 46.5077 0.309974C45.8169 -0.102958 44.9545 -0.102958 44.2626 0.309974C43.5718 0.722906 43.1633 1.48235 43.1998 2.28718V11.3562C43.1998 12.2773 42.643 13.1064 41.7895 13.4552C40.937 13.8028 39.9584 13.6013 39.3141 12.9437L35.9851 9.54283C35.5301 9.07344 34.9047 8.80885 34.2515 8.80774C33.5972 8.80774 32.9717 9.07344 32.5167 9.54283C31.5392 10.5514 31.5326 12.1522 32.5012 13.1707L38.4982 19.3846Z" fill="black"/>
<path d="M65.7839 4.55443H86.1892V9.08893H65.7839V4.55443Z" fill="black"/>
<path d="M28.9577 99.7791C27.006 99.7735 25.1339 100.55 23.759 101.933L22.0419 103.649C21.1563 104.535 19.7215 104.535 18.8359 103.649L17.1199 101.933C15.0176 99.8311 11.8548 99.2023 9.10705 100.339C6.36044 101.477 4.56922 104.159 4.56812 107.132C4.57476 112.382 5.79695 117.558 8.13948 122.257L8.93103 123.844C9.89195 125.776 11.8669 126.994 14.0246 126.986C14.9136 126.986 15.7892 126.781 16.5852 126.386L19.437 124.957C20.0747 124.638 20.8264 124.638 21.464 124.957L24.318 126.386C25.1062 126.778 25.9731 126.983 26.8532 126.986C29.013 126.993 30.988 125.772 31.9479 123.838L32.7394 122.25C35.0808 117.554 36.303 112.38 36.3097 107.132C36.3052 103.074 33.0162 99.7846 28.9577 99.7791Z" fill="black"/>
<path d="M103.07 58.5877L97.5255 54.8879L92.991 57.9101V126.986H102.06C105.817 126.986 108.862 123.942 108.862 120.184V56.4045L105.586 58.5877C104.824 59.0958 103.831 59.0958 103.07 58.5877Z" fill="black"/>
<path d="M27.9691 46.4698L33.8631 41.9099L36.6385 45.4967L30.7932 50.0157L31.2792 50.6257L36.3097 53.9812L41.8538 50.2848C42.6155 49.7766 43.6085 49.7766 44.3702 50.2848L45.5647 51.0829C45.6466 50.5405 45.7595 50.0013 45.9023 49.4711L40.1235 37.1584C39.1316 35.1978 37.3448 33.7597 35.2192 33.2084C33.0926 32.6582 30.8331 33.0479 29.0142 34.2789C27.1776 35.5343 25.9609 37.5093 25.6642 39.7135C25.3675 41.9187 26.0196 44.145 27.4587 45.841L27.9691 46.4698Z" fill="black"/>
<path d="M78.3789 58.5877C77.6173 59.0958 76.6243 59.0958 75.8626 58.5877L70.3185 54.8879L64.7754 58.5832C64.0138 59.0914 63.0207 59.0914 62.2591 58.5832L56.7149 54.8879L51.1719 58.5832C50.4102 59.0914 49.4172 59.0914 48.6556 58.5832L43.1114 54.8879L37.5684 58.5832C36.8067 59.0914 35.8137 59.0914 35.052 58.5832L31.7751 56.4045V95.6276C37.0868 96.9228 40.8298 101.674 40.8442 107.141C40.8364 113.095 39.4504 118.964 36.7957 124.293L36.0041 125.88C35.807 126.266 35.5867 126.641 35.3443 127H88.4565V57.9146L83.922 54.8879L78.3789 58.5877Z" fill="black"/>
<path d="M120.557 4.42823C118.691 1.66612 115.575 0.0143913 112.243 0.0199266C107.984 0.0741725 104.198 2.7455 102.72 6.74087L86.1238 50.9091L90.7236 53.9812L96.2677 50.2848C97.0294 49.7766 98.0224 49.7766 98.7841 50.2848L104.327 53.9812L107.728 51.714L121.785 14.3176C123.022 11.0185 122.564 7.32318 120.557 4.42823ZM102.06 46.068L97.6294 32.4645L101.938 31.0585L106.365 44.662L102.06 46.068ZM108.703 30.1972L104.273 16.5937L108.58 15.1877L113.009 28.7912L108.703 30.1972Z" fill="black"/>
</g>
<g clip-path="url(#clip1)">
<path d="M92.5156 105.05C92.5156 100.263 90.9417 96.9766 89 96.9766C87.0583 96.9766 85.4844 100.263 85.4844 105.05C85.4844 109.837 87.0583 114.312 89 114.312C90.9417 114.312 92.5156 109.836 92.5156 105.05Z" fill="white"/>
<path d="M85.4844 136.95C85.4844 141.737 87.0583 145.023 89 145.023C90.9417 145.023 92.5156 141.737 92.5156 136.95C92.5156 132.163 90.9417 127.688 89 127.688C87.0583 127.688 85.4844 132.164 85.4844 136.95Z" fill="white"/>
<path d="M84.0694 105.429C81.6757 101.283 78.6697 99.2242 76.9881 100.195C75.3066 101.166 75.5866 104.799 77.98 108.944C80.3733 113.09 83.974 116.179 85.6555 115.208C87.337 114.237 86.4627 109.574 84.0694 105.429Z" fill="#F9F9F9"/>
<path d="M93.9304 136.571C96.3242 140.717 99.3301 142.776 101.012 141.805C102.693 140.834 102.413 137.201 100.02 133.056C97.6265 128.91 94.0258 125.821 92.3443 126.792C90.6628 127.763 91.5371 132.426 93.9304 136.571Z" fill="#F9F9F9"/>
<path d="M76.9445 109.98C72.7987 107.587 69.166 107.307 68.1951 108.988C67.2243 110.67 69.2831 113.676 73.4289 116.07C77.5743 118.463 82.237 119.337 83.2079 117.656C84.1787 115.974 81.0899 112.373 76.9445 109.98Z" fill="white"/>
<path d="M101.056 132.02C105.201 134.413 108.834 134.693 109.805 133.012C110.776 131.33 108.717 128.324 104.571 125.93C100.426 123.537 95.763 122.663 94.7922 124.344C93.8213 126.026 96.9101 129.627 101.056 132.02Z" fill="white"/>
<path d="M73.0496 117.484C68.2625 117.484 64.9766 119.058 64.9766 121C64.9766 122.942 68.2625 124.516 73.0496 124.516C77.8367 124.516 82.3117 122.942 82.3117 121C82.3117 119.058 77.8363 117.484 73.0496 117.484Z" fill="#F9F9F9"/>
<path d="M104.95 124.516C109.737 124.516 113.023 122.942 113.023 121C113.023 119.058 109.737 117.484 104.95 117.484C100.163 117.484 95.6882 119.058 95.6882 121C95.6882 122.942 100.164 124.516 104.95 124.516Z" fill="#F9F9F9"/>
<path d="M73.4289 125.93C69.2831 128.324 67.2243 131.33 68.1951 133.012C69.166 134.693 72.7987 134.413 76.9445 132.02C81.0899 129.627 84.1787 126.026 83.2079 124.344C82.237 122.663 77.5743 123.537 73.4289 125.93Z" fill="white"/>
<path d="M104.571 116.07C108.717 113.676 110.776 110.67 109.805 108.988C108.834 107.307 105.201 107.587 101.056 109.98C96.9101 112.373 93.8213 115.974 94.7922 117.656C95.763 119.337 100.426 118.463 104.571 116.07Z" fill="white"/>
<path d="M77.98 133.056C75.5866 137.201 75.3066 140.834 76.9881 141.805C78.6697 142.776 81.6757 140.717 84.0694 136.571C86.4627 132.426 87.337 127.763 85.6555 126.792C83.974 125.821 80.3733 128.91 77.98 133.056Z" fill="#F9F9F9"/>
<path d="M100.02 108.944C102.413 104.799 102.693 101.166 101.012 100.195C99.3301 99.2242 96.3242 101.283 93.9304 105.429C91.5371 109.574 90.6628 114.237 92.3443 115.208C94.0258 116.179 97.6265 113.09 100.02 108.944Z" fill="#F9F9F9"/>
<path d="M95.6884 121C95.6884 124.694 92.6938 127.688 89.0001 127.688C85.3063 127.688 82.3118 124.694 82.3118 121C82.3118 117.306 85.3063 114.312 89.0001 114.312C92.6938 114.312 95.6884 117.306 95.6884 121Z" fill="#FFC15A"/>
<path d="M114 121C114 118.483 110.629 116.69 105.712 116.522C109.887 113.918 111.909 110.68 110.651 108.5C109.392 106.32 105.577 106.453 101.234 108.766C103.547 104.424 103.68 100.608 101.5 99.3493C99.3203 98.0908 96.082 100.113 93.4781 104.288C93.3102 99.3707 91.5169 96 89 96C86.4831 96 84.6898 99.3707 84.5219 104.288C81.918 100.113 78.6797 98.0908 76.5 99.3493C74.3203 100.608 74.4527 104.424 76.7659 108.766C72.4236 106.453 68.6078 106.321 67.3493 108.5C66.0908 110.68 68.1134 113.918 72.2878 116.522C67.3707 116.69 64 118.483 64 121C64 123.517 67.3707 125.31 72.2878 125.478C68.1134 128.082 66.0908 131.32 67.3493 133.5C67.9509 134.542 69.1369 135.056 70.6853 135.056C72.3759 135.056 74.4996 134.441 76.7659 133.234C74.4527 137.576 74.3203 141.392 76.5 142.651C76.933 142.901 77.4079 143.021 77.9111 143.021C79.9412 143.021 82.4357 141.059 84.5223 137.714C84.5669 139.029 84.7272 140.252 85.0033 141.354C85.1102 141.781 85.2349 142.189 85.3737 142.568C85.5187 142.963 86.3684 146 89 146C89 145.671 89 144.355 89 144.026C88.0132 144.026 87.3932 142.401 87.2071 141.894C87.0923 141.581 86.9881 141.24 86.8981 140.88C86.612 139.738 86.4609 138.379 86.4609 136.95C86.4609 132.082 88.1081 128.665 89 128.665C89.8919 128.665 91.5391 132.082 91.5391 136.95C91.5391 138.379 91.3876 139.738 91.1019 140.88C91.0138 141.23 90.9131 141.564 90.8013 141.871C90.6171 142.378 89.9868 144.026 89 144.026C89 144.026 89 145.671 89 146C91.6316 146 92.5432 142.795 92.6366 142.538C92.7712 142.169 92.8921 141.77 92.9963 141.354C93.2725 140.252 93.4327 139.029 93.4777 137.714C95.5643 141.059 98.0584 143.021 100.089 143.021C100.592 143.021 101.067 142.901 101.5 142.651C103.679 141.392 103.547 137.576 101.234 133.234C103.5 134.441 105.624 135.056 107.314 135.056C108.863 135.056 110.049 134.542 110.65 133.5C111.909 131.32 109.886 128.082 105.712 125.478C110.629 125.31 114 123.517 114 121ZM84.9614 125.039C82.7344 122.812 82.7344 119.188 84.9614 116.961C86.0749 115.847 87.5374 115.291 89 115.291C90.4626 115.291 91.9251 115.847 93.0386 116.961C95.2656 119.188 95.2656 122.812 93.0386 125.039C90.8116 127.266 87.188 127.266 84.9614 125.039ZM107.321 108.905C108.182 108.905 108.756 109.125 108.959 109.477C109.478 110.375 108.04 112.939 104.083 115.224C99.8665 117.658 96.0839 117.94 95.638 117.167C95.192 116.395 97.3275 113.26 101.544 110.826C103.952 109.436 105.983 108.905 107.321 108.905ZM100.092 100.939C100.261 100.939 100.406 100.973 100.523 101.041C101.422 101.56 101.459 104.499 99.1742 108.456C96.74 112.673 93.6055 114.808 92.8326 114.362C92.0602 113.916 92.3421 110.133 94.7762 105.917C96.7637 102.475 98.9621 100.939 100.092 100.939ZM89 97.9531C90.0376 97.9531 91.5391 100.48 91.5391 105.05C91.5391 109.918 89.8919 113.335 89 113.335C88.1081 113.335 86.4609 109.918 86.4609 105.05C86.4609 100.48 87.9624 97.9531 89 97.9531ZM77.4766 101.041C77.5937 100.973 77.7386 100.939 77.9076 100.939C79.0379 100.939 81.2363 102.475 83.2238 105.917C85.6579 110.133 85.9398 113.916 85.1678 114.362C85.1002 114.401 85.0152 114.42 84.9141 114.42C83.8544 114.42 81.0479 112.305 78.8258 108.456C76.5412 104.499 76.5778 101.56 77.4766 101.041ZM69.0407 109.477C69.2441 109.125 69.8182 108.905 70.6792 108.905C72.0173 108.905 74.0483 109.436 76.4561 110.826C80.6725 113.26 82.808 116.395 82.362 117.167C81.9161 117.94 78.1335 117.658 73.9171 115.224C69.9597 112.939 68.5219 110.375 69.0407 109.477ZM65.9531 121C65.9531 119.962 68.4804 118.461 73.0496 118.461C77.9183 118.461 81.3351 120.108 81.3351 121C81.3351 121.892 77.9183 123.539 73.0496 123.539C68.4804 123.539 65.9531 122.038 65.9531 121ZM69.0407 132.523C68.5219 131.625 69.9597 129.061 73.9171 126.776C76.8067 125.108 79.4922 124.451 81.0399 124.451C81.7505 124.451 82.2217 124.59 82.362 124.833C82.808 125.605 80.6725 128.74 76.4561 131.174C72.4988 133.459 69.5595 133.422 69.0407 132.523ZM77.4766 140.959C76.5778 140.44 76.5412 137.501 78.8258 133.544C81.26 129.327 84.3949 127.192 85.1674 127.638C85.9398 128.084 85.6579 131.867 83.2238 136.083C80.9388 140.04 78.3753 141.478 77.4766 140.959ZM100.523 140.959C100.406 141.027 100.261 141.061 100.092 141.061C98.9621 141.061 96.7637 139.525 94.7762 136.083C92.3421 131.867 92.0602 128.084 92.8322 127.638C92.8998 127.599 92.9848 127.58 93.0859 127.58C94.1456 127.58 96.9521 129.695 99.1742 133.544C101.459 137.501 101.422 140.44 100.523 140.959ZM108.959 132.523C108.44 133.422 105.501 133.459 101.544 131.174C97.3275 128.74 95.192 125.605 95.638 124.833C96.0839 124.06 99.8665 124.342 104.083 126.776C108.04 129.061 109.478 131.625 108.959 132.523ZM104.95 123.539C100.082 123.539 96.6649 121.892 96.6649 121C96.6649 120.108 100.082 118.461 104.95 118.461C109.52 118.461 112.047 119.962 112.047 121C112.047 122.038 109.52 123.539 104.95 123.539Z" fill="black"/>
<path d="M89 144.047C88.7433 144.047 88.4911 144.151 88.3095 144.333C88.128 144.515 88.0234 144.767 88.0234 145.023C88.0234 145.28 88.128 145.532 88.3095 145.714C88.4911 145.895 88.7433 146 89 146C89.2567 146 89.5089 145.895 89.6905 145.714C89.872 145.532 89.9766 145.28 89.9766 145.023C89.9766 144.767 89.872 144.515 89.6905 144.333C89.5089 144.151 89.2567 144.047 89 144.047Z" fill="black"/>
</g>
<defs>
<clipPath id="clip0">
<rect width="127" height="127" fill="white"/>
</clipPath>
<clipPath id="clip1">
<rect width="50" height="50" fill="white" transform="translate(64 96)"/>
</clipPath>
</defs>
</svg>
